<svg xmlns="http://www.w3.org/2000/svg" viewBox="0 0 1200 500" fill="none">
  <defs>
    <!-- Warm cream-paper wash (left) -->
    <radialGradient id="paperLeft" cx="20%" cy="50%" r="45%">
      <stop offset="0%" stop-color="#c67b5c" stop-opacity="0.06"/>
      <stop offset="100%" stop-color="#c67b5c" stop-opacity="0"/>
    </radialGradient>
    <!-- Warm cream-paper wash (right) -->
    <radialGradient id="paperRight" cx="80%" cy="50%" r="45%">
      <stop offset="0%" stop-color="#c67b5c" stop-opacity="0.05"/>
      <stop offset="100%" stop-color="#c67b5c" stop-opacity="0"/>
    </radialGradient>
    <!-- Central seal glow -->
    <radialGradient id="sealGlow" cx="50%" cy="50%" r="18%">
      <stop offset="0%" stop-color="#7c2d12" stop-opacity="0.14"/>
      <stop offset="55%" stop-color="#7c2d12" stop-opacity="0.05"/>
      <stop offset="100%" stop-color="#7c2d12" stop-opacity="0"/>
    </radialGradient>
  </defs>

  <!-- Background washes -->
  <rect width="1200" height="500" fill="url(#paperLeft)"/>
  <rect width="1200" height="500" fill="url(#paperRight)"/>
  <rect width="1200" height="500" fill="url(#sealGlow)"/>

  <!-- ===== LEFT SIDE: Vertical brush-stroke columns (evoking 漢文 columns read top-to-bottom) ===== -->
  <g>
    <!-- Column 1 (x=90) — brush dots of varying size -->
    <circle cx="90" cy="80"  r="3.2" fill="#7c2d12" opacity="0.22"/>
    <circle cx="90" cy="110" r="2.8" fill="#7c2d12" opacity="0.18"/>
    <circle cx="90" cy="138" r="3.6" fill="#7c2d12" opacity="0.25"/>
    <circle cx="90" cy="170" r="2.4" fill="#7c2d12" opacity="0.14"/>
    <circle cx="90" cy="200" r="3.0" fill="#7c2d12" opacity="0.2"/>
    <circle cx="90" cy="232" r="3.4" fill="#7c2d12" opacity="0.22"/>
    <circle cx="90" cy="262" r="2.2" fill="#7c2d12" opacity="0.12"/>
    <circle cx="90" cy="292" r="3.1" fill="#7c2d12" opacity="0.2"/>
    <circle cx="90" cy="324" r="2.6" fill="#7c2d12" opacity="0.16"/>
    <circle cx="90" cy="354" r="3.3" fill="#7c2d12" opacity="0.22"/>
    <circle cx="90" cy="386" r="2.5" fill="#7c2d12" opacity="0.14"/>
    <circle cx="90" cy="418" r="3.0" fill="#7c2d12" opacity="0.18"/>

    <!-- Horizontal brush strokes in column 1 (like 一 二 strokes) -->
    <path d="M76 125 L104 122" stroke="#7c2d12" stroke-width="1.4" opacity="0.16" stroke-linecap="round"/>
    <path d="M78 218 L102 215" stroke="#7c2d12" stroke-width="1.6" opacity="0.18" stroke-linecap="round"/>
    <path d="M78 248 L100 246" stroke="#7c2d12" stroke-width="1.2" opacity="0.14" stroke-linecap="round"/>
    <path d="M76 340 L104 338" stroke="#7c2d12" stroke-width="1.5" opacity="0.17" stroke-linecap="round"/>
    <path d="M80 402 L100 400" stroke="#7c2d12" stroke-width="1.1" opacity="0.13" stroke-linecap="round"/>
  </g>

  <g>
    <!-- Column 2 (x=160) — taller, finer marks -->
    <circle cx="160" cy="95"  r="2.8" fill="#7c2d12" opacity="0.18"/>
    <circle cx="160" cy="128" r="3.3" fill="#7c2d12" opacity="0.22"/>
    <circle cx="160" cy="162" r="2.4" fill="#7c2d12" opacity="0.14"/>
    <circle cx="160" cy="196" r="3.0" fill="#7c2d12" opacity="0.2"/>
    <circle cx="160" cy="230" r="3.6" fill="#7c2d12" opacity="0.25"/>
    <circle cx="160" cy="262" r="2.5" fill="#7c2d12" opacity="0.15"/>
    <circle cx="160" cy="294" r="3.2" fill="#7c2d12" opacity="0.21"/>
    <circle cx="160" cy="328" r="2.7" fill="#7c2d12" opacity="0.17"/>
    <circle cx="160" cy="362" r="3.4" fill="#7c2d12" opacity="0.22"/>
    <circle cx="160" cy="396" r="2.3" fill="#7c2d12" opacity="0.13"/>

    <path d="M144 115 L176 112" stroke="#7c2d12" stroke-width="1.3" opacity="0.15" stroke-linecap="round"/>
    <path d="M148 180 L172 178" stroke="#7c2d12" stroke-width="1.1" opacity="0.13" stroke-linecap="round"/>
    <path d="M146 278 L174 276" stroke="#7c2d12" stroke-width="1.5" opacity="0.17" stroke-linecap="round"/>
    <path d="M148 346 L172 344" stroke="#7c2d12" stroke-width="1.2" opacity="0.14" stroke-linecap="round"/>
    <!-- Slanted stroke (丶 or 捺) -->
    <path d="M150 150 Q164 156, 170 170" stroke="#7c2d12" stroke-width="1.2" opacity="0.14" fill="none" stroke-linecap="round"/>
    <path d="M146 378 Q158 384, 172 388" stroke="#7c2d12" stroke-width="1.1" opacity="0.13" fill="none" stroke-linecap="round"/>
  </g>

  <g>
    <!-- Column 3 (x=230) -->
    <circle cx="230" cy="110" r="3.1" fill="#7c2d12" opacity="0.2"/>
    <circle cx="230" cy="146" r="2.5" fill="#7c2d12" opacity="0.15"/>
    <circle cx="230" cy="180" r="3.4" fill="#7c2d12" opacity="0.22"/>
    <circle cx="230" cy="215" r="2.8" fill="#7c2d12" opacity="0.17"/>
    <circle cx="230" cy="250" r="3.6" fill="#7c2d12" opacity="0.25"/>
    <circle cx="230" cy="285" r="2.6" fill="#7c2d12" opacity="0.15"/>
    <circle cx="230" cy="320" r="3.2" fill="#7c2d12" opacity="0.2"/>
    <circle cx="230" cy="355" r="2.9" fill="#7c2d12" opacity="0.18"/>
    <circle cx="230" cy="390" r="3.0" fill="#7c2d12" opacity="0.18"/>

    <path d="M216 130 L244 128" stroke="#7c2d12" stroke-width="1.4" opacity="0.16" stroke-linecap="round"/>
    <path d="M218 198 L242 196" stroke="#7c2d12" stroke-width="1.2" opacity="0.14" stroke-linecap="round"/>
    <path d="M214 268 L246 266" stroke="#7c2d12" stroke-width="1.5" opacity="0.17" stroke-linecap="round"/>
    <path d="M220 338 L240 336" stroke="#7c2d12" stroke-width="1.1" opacity="0.13" stroke-linecap="round"/>
    <!-- Hook stroke (亅) -->
    <path d="M228 160 Q232 168, 224 172" stroke="#7c2d12" stroke-width="1.1" opacity="0.14" fill="none" stroke-linecap="round"/>
  </g>

  <g>
    <!-- Column 4 (x=305) — sparser -->
    <circle cx="305" cy="125" r="2.6" fill="#7c2d12" opacity="0.15"/>
    <circle cx="305" cy="165" r="3.0" fill="#7c2d12" opacity="0.18"/>
    <circle cx="305" cy="205" r="3.3" fill="#7c2d12" opacity="0.22"/>
    <circle cx="305" cy="245" r="2.7" fill="#7c2d12" opacity="0.16"/>
    <circle cx="305" cy="285" r="3.2" fill="#7c2d12" opacity="0.2"/>
    <circle cx="305" cy="325" r="2.5" fill="#7c2d12" opacity="0.14"/>
    <circle cx="305" cy="365" r="2.8" fill="#7c2d12" opacity="0.17"/>

    <path d="M290 148 L320 146" stroke="#7c2d12" stroke-width="1.3" opacity="0.15" stroke-linecap="round"/>
    <path d="M292 223 L318 221" stroke="#7c2d12" stroke-width="1.4" opacity="0.16" stroke-linecap="round"/>
    <path d="M290 305 L320 303" stroke="#7c2d12" stroke-width="1.2" opacity="0.14" stroke-linecap="round"/>
    <path d="M294 348 L316 346" stroke="#7c2d12" stroke-width="1.0" opacity="0.12" stroke-linecap="round"/>
  </g>

  <!-- Column ruling lines (faint vertical guides, like 線裝 page rulings) -->
  <line x1="125" y1="50" x2="125" y2="450" stroke="#7c2d12" stroke-width="0.4" opacity="0.08"/>
  <line x1="195" y1="50" x2="195" y2="450" stroke="#7c2d12" stroke-width="0.4" opacity="0.08"/>
  <line x1="265" y1="50" x2="265" y2="450" stroke="#7c2d12" stroke-width="0.4" opacity="0.08"/>
  <line x1="340" y1="50" x2="340" y2="450" stroke="#7c2d12" stroke-width="0.4" opacity="0.06"/>

  <!-- ===== CENTER: Classical seal (朱文印) ===== -->
  <g transform="translate(600 250)">
    <!-- Outer square frame (seal border) -->
    <rect x="-78" y="-78" width="156" height="156" fill="none" stroke="#7c2d12" stroke-width="2.4" opacity="0.32" rx="4"/>
    <rect x="-72" y="-72" width="144" height="144" fill="none" stroke="#7c2d12" stroke-width="0.8" opacity="0.2" rx="3"/>

    <!-- Inner cross dividing the seal into 4 quadrants (九宮格 feel) -->
    <line x1="-72" y1="0" x2="72" y2="0" stroke="#7c2d12" stroke-width="0.8" opacity="0.18"/>
    <line x1="0" y1="-72" x2="0" y2="72" stroke="#7c2d12" stroke-width="0.8" opacity="0.18"/>

    <!-- Stylized character fragments in the four quadrants (seal-script-like abstractions) -->
    <!-- Top-left: 東 (East) abstraction -->
    <g opacity="0.55">
      <line x1="-58" y1="-48" x2="-14" y2="-48" stroke="#7c2d12" stroke-width="2.4" stroke-linecap="round"/>
      <line x1="-58" y1="-30" x2="-14" y2="-30" stroke="#7c2d12" stroke-width="2.4" stroke-linecap="round"/>
      <line x1="-36" y1="-60" x2="-36" y2="-16" stroke="#7c2d12" stroke-width="2.4" stroke-linecap="round"/>
      <line x1="-50" y1="-14" x2="-22" y2="-14" stroke="#7c2d12" stroke-width="1.8" stroke-linecap="round"/>
    </g>

    <!-- Top-right: 亞 (Asia) abstraction -->
    <g opacity="0.55">
      <line x1="14" y1="-58" x2="58" y2="-58" stroke="#7c2d12" stroke-width="2.2" stroke-linecap="round"/>
      <line x1="14" y1="-18" x2="58" y2="-18" stroke="#7c2d12" stroke-width="2.2" stroke-linecap="round"/>
      <line x1="22" y1="-58" x2="22" y2="-18" stroke="#7c2d12" stroke-width="1.8" stroke-linecap="round"/>
      <line x1="50" y1="-58" x2="50" y2="-18" stroke="#7c2d12" stroke-width="1.8" stroke-linecap="round"/>
      <line x1="28" y1="-42" x2="44" y2="-42" stroke="#7c2d12" stroke-width="1.6" stroke-linecap="round"/>
      <line x1="28" y1="-32" x2="44" y2="-32" stroke="#7c2d12" stroke-width="1.6" stroke-linecap="round"/>
    </g>

    <!-- Bottom-left: 思 (Thought) abstraction — field + heart base -->
    <g opacity="0.52">
      <rect x="-52" y="14" width="32" height="22" fill="none" stroke="#7c2d12" stroke-width="1.8"/>
      <line x1="-36" y1="14" x2="-36" y2="36" stroke="#7c2d12" stroke-width="1.4"/>
      <line x1="-52" y1="25" x2="-20" y2="25" stroke="#7c2d12" stroke-width="1.4"/>
      <path d="M-52 48 Q-36 56, -20 48" stroke="#7c2d12" stroke-width="1.8" fill="none" stroke-linecap="round"/>
      <line x1="-36" y1="42" x2="-36" y2="58" stroke="#7c2d12" stroke-width="1.6" stroke-linecap="round"/>
    </g>

    <!-- Bottom-right: 史 (History) abstraction -->
    <g opacity="0.52">
      <line x1="14" y1="18" x2="58" y2="18" stroke="#7c2d12" stroke-width="2.2" stroke-linecap="round"/>
      <line x1="22" y1="18" x2="22" y2="38" stroke="#7c2d12" stroke-width="1.6"/>
      <line x1="50" y1="18" x2="50" y2="38" stroke="#7c2d12" stroke-width="1.6"/>
      <line x1="22" y1="38" x2="50" y2="38" stroke="#7c2d12" stroke-width="1.8" stroke-linecap="round"/>
      <line x1="36" y1="14" x2="36" y2="42" stroke="#7c2d12" stroke-width="1.4"/>
      <path d="M36 42 Q30 52, 20 58" stroke="#7c2d12" stroke-width="1.8" fill="none" stroke-linecap="round"/>
      <path d="M36 42 Q44 52, 56 58" stroke="#7c2d12" stroke-width="1.8" fill="none" stroke-linecap="round"/>
    </g>

    <!-- Tiny decorative corner dots (seal worn edges) -->
    <circle cx="-72" cy="-72" r="1.6" fill="#7c2d12" opacity="0.35"/>
    <circle cx="72" cy="-72" r="1.6" fill="#7c2d12" opacity="0.35"/>
    <circle cx="-72" cy="72" r="1.6" fill="#7c2d12" opacity="0.35"/>
    <circle cx="72" cy="72" r="1.6" fill="#7c2d12" opacity="0.35"/>
  </g>

  <!-- ===== RIGHT SIDE: Mirror of left — vertical brush columns ===== -->
  <g>
    <!-- Column 5 (x=870) -->
    <circle cx="870" cy="115" r="2.9" fill="#7c2d12" opacity="0.18"/>
    <circle cx="870" cy="150" r="3.3" fill="#7c2d12" opacity="0.22"/>
    <circle cx="870" cy="185" r="2.5" fill="#7c2d12" opacity="0.14"/>
    <circle cx="870" cy="220" r="3.1" fill="#7c2d12" opacity="0.2"/>
    <circle cx="870" cy="255" r="2.7" fill="#7c2d12" opacity="0.16"/>
    <circle cx="870" cy="290" r="3.4" fill="#7c2d12" opacity="0.22"/>
    <circle cx="870" cy="325" r="2.6" fill="#7c2d12" opacity="0.15"/>
    <circle cx="870" cy="360" r="3.0" fill="#7c2d12" opacity="0.19"/>

    <path d="M854 135 L886 133" stroke="#7c2d12" stroke-width="1.3" opacity="0.15" stroke-linecap="round"/>
    <path d="M858 202 L882 200" stroke="#7c2d12" stroke-width="1.2" opacity="0.14" stroke-linecap="round"/>
    <path d="M854 272 L886 270" stroke="#7c2d12" stroke-width="1.4" opacity="0.16" stroke-linecap="round"/>
    <path d="M858 342 L882 340" stroke="#7c2d12" stroke-width="1.1" opacity="0.13" stroke-linecap="round"/>
  </g>

  <g>
    <!-- Column 6 (x=945) -->
    <circle cx="945" cy="90"  r="3.2" fill="#7c2d12" opacity="0.2"/>
    <circle cx="945" cy="125" r="2.5" fill="#7c2d12" opacity="0.14"/>
    <circle cx="945" cy="160" r="3.0" fill="#7c2d12" opacity="0.18"/>
    <circle cx="945" cy="195" r="3.5" fill="#7c2d12" opacity="0.24"/>
    <circle cx="945" cy="230" r="2.6" fill="#7c2d12" opacity="0.15"/>
    <circle cx="945" cy="265" r="3.2" fill="#7c2d12" opacity="0.2"/>
    <circle cx="945" cy="300" r="2.8" fill="#7c2d12" opacity="0.17"/>
    <circle cx="945" cy="335" r="3.1" fill="#7c2d12" opacity="0.19"/>
    <circle cx="945" cy="370" r="2.4" fill="#7c2d12" opacity="0.13"/>
    <circle cx="945" cy="405" r="3.0" fill="#7c2d12" opacity="0.18"/>

    <path d="M930 110 L960 108" stroke="#7c2d12" stroke-width="1.4" opacity="0.16" stroke-linecap="round"/>
    <path d="M932 178 L958 176" stroke="#7c2d12" stroke-width="1.2" opacity="0.14" stroke-linecap="round"/>
    <path d="M928 248 L962 246" stroke="#7c2d12" stroke-width="1.5" opacity="0.17" stroke-linecap="round"/>
    <path d="M932 318 L958 316" stroke="#7c2d12" stroke-width="1.1" opacity="0.13" stroke-linecap="round"/>
    <path d="M930 388 L960 386" stroke="#7c2d12" stroke-width="1.3" opacity="0.15" stroke-linecap="round"/>
    <path d="M940 140 Q948 148, 958 152" stroke="#7c2d12" stroke-width="1.1" opacity="0.13" fill="none" stroke-linecap="round"/>
  </g>

  <g>
    <!-- Column 7 (x=1020) -->
    <circle cx="1020" cy="105" r="2.7" fill="#7c2d12" opacity="0.16"/>
    <circle cx="1020" cy="140" r="3.3" fill="#7c2d12" opacity="0.22"/>
    <circle cx="1020" cy="175" r="2.6" fill="#7c2d12" opacity="0.15"/>
    <circle cx="1020" cy="210" r="3.5" fill="#7c2d12" opacity="0.24"/>
    <circle cx="1020" cy="245" r="2.9" fill="#7c2d12" opacity="0.17"/>
    <circle cx="1020" cy="280" r="3.2" fill="#7c2d12" opacity="0.2"/>
    <circle cx="1020" cy="315" r="2.5" fill="#7c2d12" opacity="0.14"/>
    <circle cx="1020" cy="350" r="3.1" fill="#7c2d12" opacity="0.19"/>
    <circle cx="1020" cy="385" r="2.8" fill="#7c2d12" opacity="0.17"/>

    <path d="M1006 158 L1034 156" stroke="#7c2d12" stroke-width="1.3" opacity="0.15" stroke-linecap="round"/>
    <path d="M1008 228 L1032 226" stroke="#7c2d12" stroke-width="1.4" opacity="0.16" stroke-linecap="round"/>
    <path d="M1006 298 L1034 296" stroke="#7c2d12" stroke-width="1.2" opacity="0.14" stroke-linecap="round"/>
    <path d="M1010 368 L1030 366" stroke="#7c2d12" stroke-width="1.1" opacity="0.13" stroke-linecap="round"/>
  </g>

  <g>
    <!-- Column 8 (x=1090) — sparser -->
    <circle cx="1090" cy="125" r="2.6" fill="#7c2d12" opacity="0.14"/>
    <circle cx="1090" cy="165" r="3.1" fill="#7c2d12" opacity="0.19"/>
    <circle cx="1090" cy="205" r="2.8" fill="#7c2d12" opacity="0.17"/>
    <circle cx="1090" cy="245" r="3.3" fill="#7c2d12" opacity="0.22"/>
    <circle cx="1090" cy="285" r="2.5" fill="#7c2d12" opacity="0.14"/>
    <circle cx="1090" cy="325" r="3.0" fill="#7c2d12" opacity="0.18"/>
    <circle cx="1090" cy="365" r="2.7" fill="#7c2d12" opacity="0.15"/>

    <path d="M1076 145 L1104 143" stroke="#7c2d12" stroke-width="1.2" opacity="0.14" stroke-linecap="round"/>
    <path d="M1076 225 L1104 223" stroke="#7c2d12" stroke-width="1.4" opacity="0.16" stroke-linecap="round"/>
    <path d="M1078 305 L1102 303" stroke="#7c2d12" stroke-width="1.1" opacity="0.13" stroke-linecap="round"/>
    <path d="M1080 348 L1100 346" stroke="#7c2d12" stroke-width="1.0" opacity="0.12" stroke-linecap="round"/>
  </g>

  <!-- Right-side ruling lines -->
  <line x1="905" y1="50" x2="905" y2="450" stroke="#7c2d12" stroke-width="0.4" opacity="0.08"/>
  <line x1="980" y1="50" x2="980" y2="450" stroke="#7c2d12" stroke-width="0.4" opacity="0.08"/>
  <line x1="1055" y1="50" x2="1055" y2="450" stroke="#7c2d12" stroke-width="0.4" opacity="0.08"/>
  <line x1="1125" y1="50" x2="1125" y2="450" stroke="#7c2d12" stroke-width="0.4" opacity="0.06"/>

  <!-- ===== Bridging dot-trail between columns and seal (subtle path of thought) ===== -->
  <g fill="#7c2d12">
    <circle cx="395" cy="220" r="1.8" opacity="0.18"/>
    <circle cx="435" cy="235" r="1.4" opacity="0.14"/>
    <circle cx="475" cy="245" r="1.6" opacity="0.16"/>
    <circle cx="520" cy="248" r="1.3" opacity="0.12"/>

    <circle cx="680" cy="248" r="1.3" opacity="0.12"/>
    <circle cx="725" cy="245" r="1.6" opacity="0.16"/>
    <circle cx="765" cy="235" r="1.4" opacity="0.14"/>
    <circle cx="805" cy="220" r="1.8" opacity="0.18"/>
  </g>

  <!-- ===== Classical cloud curls (top corners, subtle) ===== -->
  <g stroke="#7c2d12" fill="none" stroke-linecap="round">
    <path d="M30 40 Q55 30, 75 45 Q92 58, 70 62 Q55 64, 50 52" stroke-width="0.9" opacity="0.12"/>
    <path d="M20 70 Q40 60, 55 72" stroke-width="0.6" opacity="0.08"/>

    <path d="M1170 40 Q1145 30, 1125 45 Q1108 58, 1130 62 Q1145 64, 1150 52" stroke-width="0.9" opacity="0.12"/>
    <path d="M1180 70 Q1160 60, 1145 72" stroke-width="0.6" opacity="0.08"/>
  </g>

  <!-- ===== Ambient scattered ink flecks ===== -->
  <g fill="#7c2d12">
    <circle cx="45" cy="210" r="1.2" opacity="0.08"/>
    <circle cx="380" cy="90" r="1.3" opacity="0.09"/>
    <circle cx="380" cy="410" r="1.1" opacity="0.07"/>
    <circle cx="520" cy="95" r="1.2" opacity="0.08"/>
    <circle cx="520" cy="405" r="1.3" opacity="0.09"/>
    <circle cx="680" cy="95" r="1.2" opacity="0.08"/>
    <circle cx="680" cy="405" r="1.3" opacity="0.09"/>
    <circle cx="820" cy="90" r="1.3" opacity="0.09"/>
    <circle cx="820" cy="410" r="1.1" opacity="0.07"/>
    <circle cx="1155" cy="210" r="1.2" opacity="0.08"/>
    <circle cx="140" cy="460" r="1.0" opacity="0.06"/>
    <circle cx="280" cy="445" r="1.1" opacity="0.07"/>
    <circle cx="920" cy="455" r="1.0" opacity="0.06"/>
    <circle cx="1060" cy="445" r="1.1" opacity="0.07"/>
  </g>
</svg>
